<svg width="24" height="24" viewBox="0 0 24 24" fill="none" xmlns="http://www.w3.org/2000/svg">
<path fill-rule="evenodd" clip-rule="evenodd" d="M18 2.25C18.3797 2.25 18.6935 2.53215 18.7432 2.89823L18.75 3V7C18.75 7.3797 18.4678 7.69349 18.1018 7.74315L18 7.75H15C14.8817 7.75 14.7825 7.83223 14.7566 7.94268L14.75 8V9.25H18C18.4554 9.25 18.7976 9.64944 18.745 10.0876L18.7276 10.1819L17.7276 14.1819C17.6534 14.4787 17.4081 14.6967 17.1128 14.7415L17 14.75H14.75V21C14.75 21.3797 14.4678 21.6935 14.1018 21.7432L14 21.75H10C9.6203 21.75 9.30651 21.4678 9.25685 21.1018L9.25 21V14.75H7C6.6203 14.75 6.30651 14.4678 6.25685 14.1018L6.25 14V10C6.25 9.6203 6.53215 9.30651 6.89823 9.25685L7 9.25H9.25V8C9.25 4.89821 11.706 2.37006 14.7794 2.25415L15 2.25H18ZM17.25 3.75H15C12.7218 3.75 10.8623 5.54251 10.7549 7.79408L10.75 8V10C10.75 10.3797 10.4678 10.6935 10.1018 10.7432L10 10.75H7.75V13.25H10C10.3797 13.25 10.6935 13.5322 10.7432 13.8982L10.75 14V20.25H13.25V14C13.25 13.6203 13.5322 13.3065 13.8982 13.2568L14 13.25H16.414L17.039 10.75H14C13.6203 10.75 13.3065 10.4678 13.2568 10.1018L13.25 10V8C13.25 7.08183 13.9571 6.32881 14.8565 6.2558L15 6.25H17.25V3.75Z" fill="#212121"/>
</svg>
