<svg width="24" height="24" viewBox="0 0 24 24" fill="none" xmlns="http://www.w3.org/2000/svg">
<path fill-rule="evenodd" clip-rule="evenodd" d="M12 2.25C6.61522 2.25 2.25 6.61522 2.25 12C2.25 17.3848 6.61522 21.75 12 21.75C17.3848 21.75 21.75 17.3848 21.75 12C21.75 6.61522 17.3848 2.25 12 2.25ZM12 3.75C16.5563 3.75 20.25 7.44365 20.25 12C20.25 16.5563 16.5563 20.25 12 20.25C10.9286 20.25 9.90482 20.0458 8.9656 19.6741L10.7726 15.6082C11.409 16.3309 12.2831 16.75 13.25 16.75C15.8191 16.75 17.75 14.7746 17.75 12C17.7527 9.70544 16.3899 7.62832 14.2832 6.71686C12.1765 5.80541 9.72947 6.23426 8.05827 7.80783C6.38706 9.38139 5.81186 11.7982 6.595 13.9559C6.73632 14.3452 7.16652 14.5463 7.55588 14.405C7.94524 14.2637 8.14632 13.8335 8.005 13.4441C7.42616 11.8493 7.85131 10.063 9.08654 8.89991C10.3218 7.73684 12.1304 7.41986 13.6876 8.09354C15.2447 8.76723 16.252 10.3025 16.25 11.9991C16.25 13.9537 14.9829 15.25 13.25 15.25C12.5084 15.25 11.8534 14.7907 11.4966 13.9792L12.6854 11.3046L12.7204 11.2088C12.8237 10.8541 12.6516 10.4689 12.3046 10.3146C11.9261 10.1464 11.4829 10.3169 11.3146 10.6954L7.62548 18.996C5.2978 17.5375 3.75 14.9495 3.75 12C3.75 7.44365 7.44365 3.75 12 3.75Z" fill="#212121"/>
</svg>
