<svg width="24" height="24" viewBox="0 0 24 24" fill="none" xmlns="http://www.w3.org/2000/svg">
<path d="M16.882 7.84294H17.632H16.882ZM7.118 7.84294H6.368H7.118ZM3 15.9609L2.6993 15.2739C2.42671 15.3932 2.25042 15.6623 2.25 15.9599C2.24958 16.2574 2.42511 16.5271 2.69737 16.6472L3 15.9609ZM6 18.9609L5.32179 19.2811C5.44568 19.5435 5.70982 19.7109 6 19.7109V18.9609ZM18 18.9609V19.7109C18.2902 19.7109 18.5543 19.5435 18.6782 19.2811L18 18.9609ZM21 15.9609L21.3026 16.6472C21.5749 16.5271 21.7504 16.2574 21.75 15.9598C21.7496 15.6623 21.5732 15.3931 21.3006 15.2738L21 15.9609ZM2.64904 15.2991C2.28297 15.493 2.14335 15.9468 2.33718 16.3129C2.53101 16.679 2.9849 16.8186 3.35096 16.6248L2.64904 15.2991ZM4.53033 8.31361C4.23744 8.02071 3.76256 8.02071 3.46967 8.31361C3.17678 8.6065 3.17678 9.08137 3.46967 9.37427L4.53033 8.31361ZM20.649 16.6248C21.0151 16.8186 21.469 16.679 21.6628 16.3129C21.8566 15.9468 21.717 15.493 21.351 15.2991L20.649 16.6248ZM20.5303 9.37427C20.8232 9.08137 20.8232 8.6065 20.5303 8.31361C20.2374 8.02071 19.7626 8.02071 19.4697 8.31361L20.5303 9.37427ZM17.632 7.84294C17.632 4.73247 15.1105 2.21094 12 2.21094V3.71094C14.282 3.71094 16.132 5.5609 16.132 7.84294H17.632ZM12 2.21094C8.88953 2.21094 6.368 4.73247 6.368 7.84294H7.868C7.868 5.5609 9.71796 3.71094 12 3.71094V2.21094ZM6.368 7.84294C6.368 10.0097 6.30455 11.4539 5.83247 12.5716C5.39034 13.6184 4.54381 14.4666 2.6993 15.2739L3.3007 16.648C5.36119 15.7463 6.57366 14.672 7.21428 13.1553C7.82495 11.7094 7.868 9.94914 7.868 7.84294H6.368ZM2.69737 16.6472C3.75004 17.1114 4.09204 17.2751 4.34467 17.5278C4.60502 17.7881 4.79654 18.1687 5.32179 19.2811L6.67821 18.6407C6.20346 17.6352 5.89498 16.9568 5.40533 16.4671C4.90796 15.9697 4.24996 15.6925 3.30263 15.2747L2.69737 16.6472ZM6 19.7109C7.30611 19.7109 8.16928 20.1358 9.0029 20.6121C9.80681 21.0715 10.7549 21.7109 12 21.7109V20.2109C11.2451 20.2109 10.6932 19.8504 9.7471 19.3098C8.83072 18.7861 7.69389 18.2109 6 18.2109V19.7109ZM12 21.7109C13.2451 21.7109 14.1932 21.0715 14.9971 20.6121C15.8307 20.1358 16.6939 19.7109 18 19.7109V18.2109C16.3061 18.2109 15.1693 18.7861 14.2529 19.3098C13.3068 19.8504 12.7549 20.2109 12 20.2109V21.7109ZM18.6782 19.2811C19.2035 18.1687 19.395 17.7881 19.6553 17.5278C19.908 17.2751 20.25 17.1114 21.3026 16.6472L20.6974 15.2747C19.75 15.6925 19.092 15.9697 18.5947 16.4671C18.105 16.9568 17.7965 17.6352 17.3218 18.6407L18.6782 19.2811ZM21.3006 15.2738C19.4556 14.4666 18.6092 13.6184 18.1672 12.5717C17.6952 11.454 17.632 10.0098 17.632 7.84294H16.132C16.132 9.94903 16.1748 11.7094 16.7853 13.1552C17.4258 14.672 18.6384 15.7463 20.6994 16.648L21.3006 15.2738ZM3.35096 16.6248C5.37027 15.5555 6.70066 14.3643 6.87053 12.8155C7.0373 11.2949 6.0329 9.81618 4.53033 8.31361L3.46967 9.37427C4.9671 10.8717 5.4627 11.893 5.37947 12.6519C5.29934 13.3826 4.62973 14.2503 2.64904 15.2991L3.35096 16.6248ZM21.351 15.2991C19.3703 14.2503 18.7007 13.3826 18.6205 12.6519C18.5373 11.893 19.0329 10.8717 20.5303 9.37427L19.4697 8.31361C17.9671 9.81618 16.9627 11.2949 17.1295 12.8155C17.2993 14.3643 18.6297 15.5555 20.649 16.6248L21.351 15.2991Z" fill="#212121"/>
</svg>
